<svg width="23" height="17" viewBox="0 0 23 17" fill="none" xmlns="http://www.w3.org/2000/svg">
<path d="M22.7354 2.8877C22.6101 2.73116 22.4205 2.64005 22.22 2.64005H4.65429L4.16309 0.511582C4.09395 0.212131 3.8273 0 3.51999 0H0.659989C0.295518 0 0 0.295518 0 0.660034C0 1.02455 0.295518 1.32002 0.659989 1.32002H2.99495L6.32918 15.7684C6.39826 16.0679 6.66496 16.28 6.97227 16.28H20.196C20.5605 16.28 20.856 15.9845 20.856 15.62C20.856 15.2555 20.5604 14.96 20.196 14.96H7.49735L6.9897 12.76H20.24C20.5487 12.76 20.8162 12.5461 20.8839 12.2449L22.8639 3.44491C22.9079 3.24927 22.8606 3.04429 22.7354 2.8877ZM19.712 11.44H6.68507L4.95892 3.96002H21.395L19.712 11.44Z" fill="#232323"/>
</svg>
